<svg version="1.1" id="Layer_1" xmlns="http://www.w3.org/2000/svg" xmlns:xlink="http://www.w3.org/1999/xlink" x="0px" y="0px"
	 width="100%" viewBox="0 0 176 197" enable-background="new 0 0 176 197" xml:space="preserve">
<path fill="#FDFEFC" opacity="1.000000" stroke="none" 
	d="
M107.000000,198.000000 
	C71.704208,198.000000 36.408421,198.000000 1.056316,198.000000 
	C1.056316,132.440689 1.056316,66.881325 1.056316,1.000000 
	C37.020256,1.000000 73.041466,1.000000 109.377945,1.314623 
	C107.921227,2.466361 106.151627,3.308568 104.376823,4.139647 
	C98.899452,6.704509 96.390381,11.523252 97.669960,16.931671 
	C99.103142,16.265825 100.548149,15.594484 102.206757,15.047097 
	C102.703667,15.370488 102.882179,15.639470 102.977142,15.990014 
	C102.998390,16.002031 102.970787,15.961992 102.661423,16.157547 
	C100.223953,17.354269 98.095856,18.355434 95.573517,19.250475 
	C94.095039,19.165451 93.010803,19.186550 91.720871,18.970230 
	C90.366661,18.883883 89.218124,19.034956 87.641068,19.117929 
	C85.501541,19.204887 83.790543,19.359947 81.691391,19.379314 
	C77.740013,19.775940 73.508492,19.158588 71.828270,25.030201 
	C75.825272,24.126556 78.932190,23.424139 82.473251,22.790298 
	C84.661346,22.771898 86.415298,22.684921 88.206055,23.045860 
	C88.527115,25.610470 88.811378,27.727167 88.879974,29.603567 
	C88.277122,29.188263 87.889931,29.013252 87.330719,28.567923 
	C86.821297,28.038889 86.483917,27.780174 86.110504,27.193827 
	C83.899841,25.478006 83.651054,25.578064 83.123436,28.053097 
	C81.170410,37.214710 89.642967,45.503777 101.604416,45.031662 
	C100.169525,39.686504 99.197891,34.374050 97.210037,29.473843 
	C96.385002,27.440060 93.388420,26.287197 91.179077,24.513491 
	C90.805885,23.614780 90.632965,22.936312 90.835747,22.312878 
	C93.820183,22.539198 96.428909,22.710484 99.279434,23.140619 
	C100.693024,23.491213 101.864822,23.582956 103.311066,23.780357 
	C103.780922,23.901888 103.976326,23.917757 104.217865,24.091381 
	C104.264000,24.249136 104.713516,24.357260 104.713516,24.357260 
	C104.713516,24.357260 105.073196,24.050461 105.396019,24.159622 
	C106.828377,24.461292 107.937920,24.653803 109.220818,25.085453 
	C109.948036,25.396263 110.501892,25.467932 111.343529,25.676649 
	C111.839813,25.854698 112.048325,25.895697 112.285919,26.088314 
	C112.315018,26.239935 112.576675,26.394285 112.576675,26.394285 
	C112.576675,26.394285 112.809738,26.199554 113.149948,26.380054 
	C114.672768,27.006199 115.855370,27.451845 117.188591,28.174932 
	C117.928612,28.586145 118.518021,28.719917 119.126984,28.865883 
	C119.146545,28.878077 119.149696,28.832079 119.107849,29.230350 
	C119.053986,30.425751 119.041969,31.222878 118.849335,32.320221 
	C114.372505,37.267544 114.442184,42.817059 115.285858,48.889153 
	C115.746124,49.836533 116.297638,50.440170 117.044708,51.312889 
	C118.864555,53.640438 120.488853,55.698910 122.205978,58.053314 
	C122.847374,58.577778 123.395920,58.806305 124.246071,59.177540 
	C125.530342,59.787655 126.513016,60.255066 127.877243,60.903965 
	C128.942062,56.460316 130.519089,52.459240 130.701218,48.395641 
	C130.884521,44.305981 129.680740,40.154156 129.357315,35.925812 
	C130.348236,35.750435 131.066574,35.678814 131.943649,35.735626 
	C132.358627,35.961849 132.623535,36.020653 133.002731,36.269257 
	C133.402481,36.608082 133.696594,36.718105 134.236084,36.919075 
	C134.820801,37.080582 135.160126,37.151138 135.682800,37.479057 
	C136.235992,37.923370 136.605865,38.110329 137.155518,38.551521 
	C138.697220,39.728199 140.059113,40.650646 141.535858,41.859562 
	C142.986588,43.491341 144.322433,44.836651 145.788239,46.432114 
	C146.464508,47.173058 147.010803,47.663845 147.712418,48.487648 
	C148.478027,49.583138 149.088333,50.345612 149.629669,51.217991 
	C149.560699,51.327896 149.721085,51.529942 149.721085,51.529942 
	C149.721085,51.529942 149.975067,51.480244 150.178741,51.749527 
	C150.670670,52.364559 150.958939,52.710308 151.195023,53.448349 
	C151.076981,54.896034 151.011093,55.951427 150.818863,57.298439 
	C150.547699,58.410854 150.402878,59.231644 150.052963,60.380802 
	C150.592682,64.740349 151.337494,68.771530 152.185669,73.131897 
	C156.681458,80.891823 163.928162,84.399002 171.369583,87.984123 
	C175.848816,70.861656 172.337677,51.755444 159.616287,51.962276 
	C160.995789,54.590630 162.419937,57.304043 163.611603,60.231003 
	C162.878525,61.343975 162.377899,62.243401 161.799896,62.952919 
	C161.722504,62.763004 161.651566,62.359032 161.735504,62.020775 
	C161.256256,61.100323 160.693039,60.518131 159.930817,59.661976 
	C157.852036,56.579941 155.972229,53.771870 153.995804,50.718517 
	C153.605209,50.298424 153.311264,50.123615 152.862701,49.672569 
	C152.577240,49.230785 152.446381,49.065235 152.384552,48.783123 
	C152.453583,48.666565 152.286926,48.454788 152.286926,48.454788 
	C152.286926,48.454788 152.020721,48.501331 151.760086,48.258434 
	C150.785172,47.390667 150.070908,46.765797 149.336792,46.135769 
	C149.316956,46.130608 149.366577,46.105099 149.268860,45.752403 
	C147.018784,43.699379 144.866409,41.999046 142.674591,39.990047 
	C142.060654,38.833046 141.486176,37.984711 140.937408,36.762085 
	C140.977783,35.638432 140.992447,34.889072 141.324280,34.149700 
	C142.058701,34.224689 142.475937,34.289696 143.030975,34.690895 
	C146.927643,36.844707 150.179321,35.991127 153.243500,33.066143 
	C153.433365,32.982098 153.841965,32.907932 154.095642,32.873199 
	C154.583527,32.600315 154.817749,32.362167 155.062714,32.090790 
	C155.073456,32.057552 155.142593,32.067535 155.327454,31.999672 
	C155.748825,31.797817 155.921188,31.606131 156.337158,31.186554 
	C158.696472,29.402462 160.748001,27.788563 163.065384,25.965528 
	C157.268860,19.453304 150.401550,16.911657 142.364532,18.145187 
	C136.816879,18.996647 133.384842,22.740566 131.339569,28.006922 
	C130.357727,28.327074 129.674622,28.663406 128.683792,28.955299 
	C127.967232,28.844387 127.558372,28.777916 126.963661,28.505535 
	C126.182571,27.876413 125.587349,27.453201 124.826813,26.769653 
	C124.082878,26.356916 123.504257,26.204514 122.617935,26.001358 
	C121.898872,25.892517 121.487503,25.834431 120.847618,25.555122 
	C119.587547,25.137293 118.556007,24.940683 117.327988,24.508408 
	C116.751961,24.140331 116.372391,24.007921 115.865860,23.801203 
	C115.738892,23.726896 115.446808,23.762358 115.282593,23.496151 
	C114.395897,23.061865 113.673416,22.893785 112.632156,22.570543 
	C111.846100,22.365694 111.378838,22.316006 110.760643,22.006046 
	C110.054100,21.680281 109.498489,21.614784 108.576820,21.381124 
	C106.105278,20.876499 103.999786,20.540037 101.973976,19.929506 
	C102.390945,19.203278 102.728226,18.751116 103.443512,18.315525 
	C105.251694,17.992989 106.681870,17.653881 108.404694,17.204954 
	C108.983429,16.797895 109.269531,16.500656 109.894875,16.216703 
	C116.094231,12.639731 119.501991,5.956631 118.000000,1.000000 
	C137.639221,1.000000 157.278458,1.000000 176.958832,1.000000 
	C176.958832,66.547577 176.958832,132.095184 176.958832,198.000000 
	C157.980591,198.000000 138.958954,198.000000 119.600769,197.670471 
	C120.550591,196.501038 121.836960,195.661163 124.229149,194.099289 
	C119.492180,190.102341 115.269081,186.539001 110.938095,182.700562 
	C110.241035,181.968185 109.651863,181.510880 109.041092,181.023376 
	C109.019493,180.993149 109.043892,181.062012 109.353485,181.039062 
	C110.101418,180.655457 110.539749,180.294815 111.314133,179.871368 
	C112.076691,179.654404 112.503204,179.500214 113.247131,179.460846 
	C114.884094,178.827423 116.203636,178.079208 117.886444,177.319550 
	C122.833176,175.212036 127.416656,173.115952 132.118683,171.295197 
	C132.782120,172.366776 133.327011,173.163040 133.919937,174.253265 
	C134.068359,174.931412 134.168747,175.315582 134.285553,175.983948 
	C134.608795,176.457199 134.915619,176.646271 135.482697,177.017197 
	C137.202713,178.403748 138.662491,179.608429 140.218582,181.081970 
	C140.664734,181.432434 141.014572,181.514084 141.791412,181.641495 
	C146.870270,180.842682 151.522079,179.998108 156.239899,179.264297 
	C156.305908,179.375076 156.521530,179.238846 156.521530,179.238846 
	C156.521530,179.238846 156.406006,179.009857 156.673889,178.822174 
	C157.708099,177.894516 158.474411,177.154556 159.526001,176.287369 
	C159.576279,175.376266 159.341278,174.592392 158.871643,173.588867 
	C157.109802,172.569412 155.582611,171.769577 153.893616,170.713226 
	C153.179474,170.234238 152.627121,170.011749 151.876343,169.585999 
	C150.957535,169.163239 150.237167,168.943726 149.385086,168.493805 
	C148.806412,168.105408 148.359467,167.947433 147.603546,167.605957 
	C146.825684,167.346725 146.356812,167.271027 145.956268,167.144135 
	C146.024597,167.092957 146.041321,166.923615 145.874481,166.737762 
	C145.409134,166.316299 145.094910,166.293106 144.527985,166.485138 
	C143.971878,166.443283 143.663193,166.481888 142.845520,166.412109 
	C141.595474,166.074066 140.864822,165.927658 140.342056,165.452148 
	C140.690414,164.904816 140.830887,164.686615 141.133362,164.505127 
	C141.550415,164.445343 141.638290,164.266479 141.830872,163.779907 
	C145.560699,160.889771 148.646240,156.884811 152.543777,155.801651 
	C166.406601,151.949020 174.016373,136.697464 167.538147,122.589256 
	C160.904175,127.800179 154.425812,132.888870 147.719543,138.092804 
	C147.343140,138.505386 147.194611,138.802734 146.941589,139.393661 
	C146.474503,140.434265 146.111938,141.181290 145.482635,141.976959 
	C145.108017,142.677338 145.000107,143.329086 144.914856,144.401978 
	C144.919250,146.228241 144.900955,147.633347 144.653076,149.241760 
	C144.927963,151.238403 145.432449,153.031754 145.631653,155.002747 
	C140.577560,159.268295 135.828766,163.356186 130.812469,167.489227 
	C130.197540,167.946289 129.850113,168.358231 129.145752,168.827881 
	C128.139725,169.191284 127.490654,169.496964 126.752831,169.703857 
	C126.664078,169.605072 126.441368,169.747131 126.441368,169.747131 
	C126.441368,169.747131 126.481888,170.009277 126.162117,170.194519 
	C124.904488,170.652863 123.966621,170.925964 122.839294,171.042084 
	C122.355782,170.688324 122.199326,170.413300 122.489594,169.894943 
	C128.419174,163.774231 125.027702,156.565033 126.292694,149.625854 
	C119.415863,150.488892 115.525154,154.359650 111.892593,159.208527 
	C111.439186,160.007202 111.293785,160.653748 111.171814,161.713486 
	C111.192940,164.590012 111.190651,167.053329 111.208641,169.824585 
	C111.509529,170.411301 111.790131,170.690048 112.034714,170.975983 
	C111.998688,170.983139 112.052536,170.933151 112.031036,171.309784 
	C111.670372,173.109131 111.331215,174.531815 110.740585,176.195374 
	C108.661858,176.945557 106.834602,177.454865 104.831894,177.791611 
	C104.133698,177.837570 103.610954,178.056091 102.747719,178.252472 
	C101.978645,178.369385 101.550072,178.508453 100.713776,178.506073 
	C96.348312,178.609055 92.366928,178.663727 88.439629,179.152756 
	C84.714432,179.616608 80.342087,177.272202 76.246269,181.884979 
	C79.010529,182.350357 80.718658,182.855392 82.435287,182.886154 
	C87.573486,182.978256 92.722038,183.037476 97.852364,182.801422 
	C100.547729,182.677399 102.378944,183.299744 102.932281,186.302124 
	C101.560951,186.682816 100.388985,186.792892 98.711945,186.950378 
	C99.649094,188.764374 100.234558,190.483032 101.297630,191.822662 
	C103.034737,194.011673 105.083000,195.953751 107.000000,198.000000 
M94.386017,160.838913 
	C93.043945,163.337479 91.701874,165.836060 90.359802,168.334625 
	C90.694534,168.571838 91.029266,168.809036 91.364006,169.046249 
	C94.596878,165.618362 98.051575,162.371078 101.018860,158.726929 
	C108.388420,149.676331 112.103912,138.843872 116.033203,128.022324 
	C119.524086,118.408195 123.874809,109.069611 128.419983,99.893715 
	C130.143906,96.413429 133.471802,93.727654 135.855484,90.929878 
	C130.359039,89.308640 124.204926,87.333015 117.963066,85.690964 
	C109.220154,83.390953 101.887413,85.773003 96.211243,92.912788 
	C94.971382,94.472351 94.062897,96.506317 92.489937,97.551308 
	C87.386330,100.941841 89.399086,104.234680 90.837936,107.968300 
	C90.393135,108.084747 89.948334,108.201195 89.049675,107.838509 
	C81.334297,96.012108 73.223335,84.420700 66.017990,72.291321 
	C59.203976,60.820717 56.738110,48.371891 61.987385,35.422035 
	C63.775219,31.011486 66.170830,26.847298 68.671890,21.796795 
	C52.938515,26.284515 40.661205,32.930130 41.206238,52.007263 
	C40.634949,51.777283 40.063660,51.547302 39.492371,51.317322 
	C39.010071,46.821964 38.527771,42.326607 38.034584,37.729771 
	C37.711025,37.907619 37.115501,38.154938 36.609650,38.524879 
	C27.291634,45.339344 23.327599,54.412968 25.034666,65.965294 
	C25.034666,65.965294 24.967094,66.035789 24.308908,65.801544 
	C23.057158,63.313854 21.805407,60.826164 20.281616,57.797832 
	C19.292679,59.342278 18.407024,60.652607 17.594330,62.006729 
	C13.155734,69.402397 13.846273,77.169624 15.998088,85.000259 
	C15.998088,85.000259 16.031622,84.964745 15.325716,84.947540 
	C13.840162,83.356667 12.354609,81.765800 10.740133,80.036873 
	C7.489703,88.409912 9.429329,96.127899 12.508836,104.554047 
	C10.319860,103.479622 9.284275,102.971329 8.063182,102.371971 
	C7.462465,111.690544 10.215133,119.555153 15.815146,126.762222 
	C14.609404,126.861641 13.807290,126.927773 12.922945,126.607368 
	C12.737324,126.662697 12.551702,126.718025 12.366080,126.773346 
	C12.573399,126.853172 12.780717,126.932991 12.666153,127.739189 
	C13.334152,129.421326 13.750613,131.265305 14.711600,132.758942 
	C20.297215,141.440491 27.063135,148.659500 37.791779,151.057526 
	C37.179359,151.756058 36.566940,152.454590 35.220005,152.950439 
	C31.594982,151.720184 27.969959,150.489929 24.121847,149.183960 
	C24.208185,149.905212 24.098528,150.485550 24.338919,150.782455 
	C35.942036,165.113007 50.347107,175.303131 68.300034,180.041306 
	C69.936829,180.473282 72.231163,179.957596 73.741844,179.068878 
	C82.424301,173.961212 88.176178,166.168625 92.963684,158.292236 
	C93.511223,158.907410 94.058754,159.522583 94.386017,160.838913 
z"/>
<path fill="#B5CD62" opacity="1.000000" stroke="none" 
	d="
M108.112053,17.314772 
	C106.681870,17.653881 105.251694,17.992989 103.423134,17.924931 
	C103.006767,16.999174 102.988777,16.480583 102.970787,15.961992 
	C102.970787,15.961992 102.998390,16.002031 103.301247,15.949757 
	C104.146935,15.011179 104.689774,14.124877 105.232613,13.238576 
	C104.949745,13.016148 104.666878,12.793720 104.384010,12.571293 
	C103.587051,13.355239 102.790100,14.139185 101.993149,14.923138 
	C100.548149,15.594484 99.103142,16.265825 97.669960,16.931671 
	C96.390381,11.523252 98.899452,6.704509 104.376823,4.139647 
	C106.151627,3.308568 107.921227,2.466361 109.846603,1.314623 
	C112.370560,1.000000 114.741112,1.000000 117.555832,1.000000 
	C119.501991,5.956631 116.094231,12.639731 109.560471,16.261600 
	C108.628563,16.633732 108.370308,16.974251 108.112053,17.314772 
z"/>
<path fill="#B2CA5B" opacity="1.000000" stroke="none" 
	d="
M107.460632,198.000000 
	C105.083000,195.953751 103.034737,194.011673 101.297630,191.822662 
	C100.234558,190.483032 99.649094,188.764374 98.711945,186.950378 
	C100.388985,186.792892 101.560951,186.682816 103.270538,186.357635 
	C105.505249,187.459885 107.202347,188.777267 108.899445,190.094635 
	C109.252754,189.679352 109.606056,189.264069 109.959358,188.848785 
	C108.427612,187.162155 106.895859,185.475525 104.625526,182.975647 
	C107.482758,182.975647 109.264374,182.975647 111.045990,182.975647 
	C115.269081,186.539001 119.492180,190.102341 124.229149,194.099289 
	C121.836960,195.661163 120.550591,196.501038 119.132111,197.670471 
	C115.307091,198.000000 111.614182,198.000000 107.460632,198.000000 
z"/>
<path fill="#56769B" opacity="1.000000" stroke="none" 
	d="
M92.802917,157.431229 
	C88.176178,166.168625 82.424301,173.961212 73.741844,179.068878 
	C72.231163,179.957596 69.936829,180.473282 68.300034,180.041306 
	C50.347107,175.303131 35.942036,165.113007 24.338919,150.782455 
	C24.098528,150.485550 24.208185,149.905212 24.121847,149.183960 
	C27.969959,150.489929 31.594982,151.720184 35.846294,153.374786 
	C39.812675,153.799133 43.152767,153.799133 46.492859,153.799133 
	C46.475296,153.327087 46.457733,152.855057 46.440170,152.383011 
	C43.595589,151.755920 40.751003,151.128845 37.906418,150.501770 
	C27.063135,148.659500 20.297215,141.440491 14.711600,132.758942 
	C13.750613,131.265305 13.334152,129.421326 12.832457,127.370262 
	C12.998760,127.001335 13.005177,126.993904 13.005177,126.993904 
	C13.807290,126.927773 14.609404,126.861641 15.815146,126.762222 
	C10.215133,119.555153 7.462465,111.690544 8.063182,102.371971 
	C9.284275,102.971329 10.319860,103.479622 12.508836,104.554047 
	C9.429329,96.127899 7.489703,88.409912 10.740133,80.036873 
	C12.354609,81.765800 13.840162,83.356667 15.677260,85.166153 
	C16.229670,85.370178 16.430536,85.355598 16.631401,85.341019 
	C16.408600,85.238770 16.185799,85.136513 15.962997,85.034256 
	C13.846273,77.169624 13.155734,69.402397 17.594330,62.006729 
	C18.407024,60.652607 19.292679,59.342278 20.281616,57.797832 
	C21.805407,60.826164 23.057158,63.313854 24.672640,66.171455 
	C25.232859,66.567589 25.429348,66.593819 25.625835,66.620049 
	C25.451452,66.378441 25.277071,66.136833 25.102688,65.895226 
	C23.327599,54.412968 27.291634,45.339344 36.609650,38.524879 
	C37.115501,38.154938 37.711025,37.907619 38.034584,37.729771 
	C38.527771,42.326607 39.010071,46.821964 39.492371,51.317322 
	C40.063660,51.547302 40.634949,51.777283 41.206238,52.007263 
	C40.661205,32.930130 52.938515,26.284515 68.671890,21.796795 
	C66.170830,26.847298 63.775219,31.011486 61.987385,35.422035 
	C56.738110,48.371891 59.203976,60.820717 66.017990,72.291321 
	C73.223335,84.420700 81.334297,96.012108 89.312340,108.380272 
	C90.196922,109.974304 90.818840,111.026566 91.579300,112.444397 
	C93.736511,114.841972 92.405731,119.445030 96.923569,119.548828 
	C96.939537,119.526733 96.982269,119.492859 96.988037,119.497681 
	C96.993797,119.502502 96.989601,119.517029 96.657570,119.628860 
	C96.246826,120.163269 96.168121,120.585846 95.943237,121.427162 
	C96.009361,122.386841 96.221657,122.927780 96.224426,123.701370 
	C96.238068,124.486404 96.461235,125.038780 96.642380,125.992836 
	C97.396339,127.434441 98.192329,128.474365 98.976944,129.678406 
	C98.957535,130.062042 98.962578,130.281250 98.532272,130.366455 
	C97.621178,135.316727 97.158501,140.400726 96.466682,145.742325 
	C96.145935,146.668411 96.054329,147.336884 95.837021,148.317062 
	C95.623550,149.067535 95.535774,149.506287 95.265808,150.149628 
	C95.011414,150.890625 94.939201,151.427048 94.749901,152.186539 
	C94.567467,152.734741 94.502121,153.059845 94.212982,153.623108 
	C93.593781,155.051254 93.198349,156.241241 92.802917,157.431229 
z"/>
<path fill="#58779C" opacity="1.000000" stroke="none" 
	d="
M98.980682,130.500153 
	C98.962578,130.281250 98.957535,130.062042 99.270927,129.514526 
	C99.553535,128.963409 99.530785,128.740265 99.717239,128.258499 
	C99.705605,127.166435 99.484764,126.332993 99.234955,125.206070 
	C99.001480,123.952744 98.796967,122.992905 98.649582,121.754333 
	C98.134338,120.822731 97.561966,120.169884 96.989601,119.517029 
	C96.989601,119.517029 96.993797,119.502502 97.159622,119.132523 
	C97.241066,118.506973 97.156700,118.251404 97.032837,117.656395 
	C96.132584,115.478638 95.271828,113.640312 94.375824,111.482422 
	C93.623344,110.005089 92.906105,108.847321 92.188866,107.689560 
	C89.399086,104.234680 87.386330,100.941841 92.489937,97.551308 
	C94.062897,96.506317 94.971382,94.472351 96.211243,92.912788 
	C101.887413,85.773003 109.220154,83.390953 117.963066,85.690964 
	C124.204926,87.333015 130.359039,89.308640 135.855484,90.929878 
	C133.471802,93.727654 130.143906,96.413429 128.419983,99.893715 
	C123.874809,109.069611 119.524086,118.408195 116.033203,128.022324 
	C112.103912,138.843872 108.388420,149.676331 101.018860,158.726929 
	C98.051575,162.371078 94.596878,165.618362 91.364006,169.046249 
	C91.029266,168.809036 90.694534,168.571838 90.359802,168.334625 
	C91.701874,165.836060 93.043945,163.337479 94.719315,160.258133 
	C95.535309,158.232864 96.018005,156.788376 96.669868,155.082397 
	C97.184448,153.872711 97.529861,152.924545 98.084198,151.776749 
	C98.380417,151.024094 98.467712,150.471054 98.683472,149.610474 
	C98.847260,148.861816 98.882584,148.420685 99.108818,147.769684 
	C99.363914,147.014297 99.428101,146.468796 99.624435,145.546417 
	C99.822983,144.109543 99.889389,143.049545 100.154663,141.730133 
	C100.362877,140.622192 100.372238,139.773666 100.498016,138.508972 
	C100.069855,135.561905 99.525269,133.031036 98.980682,130.500153 
z"/>
<path fill="#B2CB5C" opacity="1.000000" stroke="none" 
	d="
M112.929718,179.346039 
	C112.503204,179.500214 112.076691,179.654404 111.139359,179.648026 
	C110.100319,180.012314 109.572105,180.537170 109.043892,181.062012 
	C109.043892,181.062012 109.019493,180.993149 108.705215,180.864548 
	C107.024658,180.749603 105.580688,181.044281 104.314873,180.694427 
	C103.150757,180.372681 102.178352,179.357315 101.121490,178.647522 
	C101.550072,178.508453 101.978645,178.369385 102.912445,178.439697 
	C103.947563,178.420776 104.477455,178.192474 105.007347,177.964172 
	C106.834602,177.454865 108.661858,176.945557 111.106140,176.224777 
	C113.131828,175.668518 114.540497,175.323746 116.160965,174.913025 
	C116.643410,174.707962 116.853081,174.505646 117.254250,174.194885 
	C117.670044,174.098984 117.833366,174.048355 118.319382,173.997345 
	C120.104309,173.064316 121.566536,172.131683 123.028763,171.199051 
	C123.966621,170.925964 124.904488,170.652863 126.223625,170.166626 
	C126.604904,169.953476 126.841583,169.802658 126.841583,169.802658 
	C127.490654,169.496964 128.139725,169.191284 129.441559,168.819931 
	C130.422867,168.317551 130.751434,167.880814 131.079987,167.444092 
	C135.828766,163.356186 140.577560,159.268295 145.964874,154.947784 
	C149.592575,150.803101 152.581787,146.891052 155.570984,142.978989 
	C155.036362,142.534790 154.501755,142.090576 153.967148,141.646378 
	C152.488434,142.786484 150.984558,143.895737 149.537796,145.075043 
	C147.958511,146.362350 146.432114,147.714539 144.882660,149.038452 
	C144.900955,147.633347 144.919250,146.228241 145.161942,144.228745 
	C145.507355,143.065674 145.628357,142.497009 145.749359,141.928329 
	C146.111938,141.181290 146.474503,140.434265 147.172180,139.281265 
	C147.654007,138.576050 147.800735,138.276794 147.947449,137.977554 
	C154.425812,132.888870 160.904175,127.800179 167.538147,122.589256 
	C174.016373,136.697464 166.406601,151.949020 152.543777,155.801651 
	C148.646240,156.884811 145.560699,160.889771 141.721573,163.838028 
	C141.203171,164.221985 141.080139,164.337616 140.971359,164.468399 
	C140.830887,164.686615 140.690414,164.904816 140.050964,165.452362 
	C137.034714,167.527740 134.517426,169.273804 132.000137,171.019867 
	C127.416656,173.115952 122.833176,175.212036 117.526367,177.240463 
	C115.511940,177.897217 114.220833,178.621628 112.929718,179.346039 
z"/>
<path fill="#B2CB5A" opacity="1.000000" stroke="none" 
	d="
M161.651566,62.359032 
	C161.651566,62.359032 161.722504,62.763004 161.838715,63.302132 
	C162.648376,65.363251 163.341827,66.885239 164.035278,68.407234 
	C164.503983,68.252869 164.972702,68.098503 165.441422,67.944145 
	C164.908966,65.301918 164.376526,62.659687 163.844070,60.017456 
	C162.419937,57.304043 160.995789,54.590630 159.616287,51.962276 
	C172.337677,51.755444 175.848816,70.861656 171.369583,87.984123 
	C163.928162,84.399002 156.681458,80.891823 152.168060,72.720734 
	C151.450745,68.004395 150.854401,64.028412 150.258057,60.052437 
	C150.402878,59.231644 150.547699,58.410854 151.082840,57.099777 
	C151.397842,55.425014 151.322525,54.240536 151.247192,53.056053 
	C150.958939,52.710308 150.670670,52.364559 150.140442,51.683922 
	C149.898468,51.349037 149.698639,51.108086 149.698639,51.108086 
	C149.088333,50.345612 148.478027,49.583138 148.114914,48.254349 
	C148.693604,47.172325 149.025116,46.656624 149.356628,46.140926 
	C150.070908,46.765797 150.785172,47.390667 151.799683,48.329868 
	C152.099915,48.644199 152.315521,48.899681 152.315521,48.899681 
	C152.446381,49.065235 152.577240,49.230785 152.970947,49.908287 
	C153.519989,50.601421 153.806213,50.782612 154.092438,50.963799 
	C155.972229,53.771870 157.852036,56.579941 159.928253,59.971493 
	C160.633636,61.156326 161.142609,61.757679 161.651566,62.359032 
z"/>
<path fill="#B2CC5C" opacity="1.000000" stroke="none" 
	d="
M142.893188,34.354702 
	C142.475937,34.289696 142.058701,34.224689 141.122833,33.878319 
	C139.484756,32.939095 138.365280,32.281231 136.785797,31.353035 
	C138.843079,30.241936 140.170425,29.525070 141.497757,28.808203 
	C141.422211,28.546503 141.346680,28.284801 141.271133,28.023100 
	C138.060196,28.023100 134.849243,28.023100 131.638290,28.023100 
	C133.384842,22.740566 136.816879,18.996647 142.364532,18.145187 
	C150.401550,16.911657 157.268860,19.453304 163.065384,25.965528 
	C160.748001,27.788563 158.696472,29.402462 156.127319,31.204893 
	C155.339432,31.538622 155.183731,31.763327 155.142593,32.067535 
	C155.142593,32.067535 155.073456,32.057552 154.808258,32.123924 
	C154.309341,32.429508 154.075653,32.668716 153.841965,32.907928 
	C153.841965,32.907932 153.433365,32.982098 152.826965,33.048111 
	C149.111450,33.527649 146.002319,33.941174 142.893188,34.354702 
z"/>
<path fill="#B2CC5A" opacity="1.000000" stroke="none" 
	d="
M122.113144,57.757378 
	C120.488853,55.698910 118.864555,53.640438 117.056496,51.001747 
	C116.374191,49.796154 115.875656,49.170784 115.377113,48.545414 
	C114.442184,42.817059 114.372505,37.267544 119.196854,32.391296 
	C120.513893,34.378849 121.302788,36.595531 122.134323,39.059528 
	C122.315575,39.629456 122.546349,39.859600 122.938034,40.317612 
	C123.613853,41.425430 124.220917,42.212914 125.140396,42.768070 
	C125.304192,40.356682 125.155579,38.177616 124.968155,35.665695 
	C124.943649,34.886936 124.957947,34.441036 125.324020,34.000793 
	C126.812111,34.680832 127.948433,35.355202 129.084747,36.029572 
	C129.680740,40.154156 130.884521,44.305981 130.701218,48.395641 
	C130.519089,52.459240 128.942062,56.460316 127.877243,60.903965 
	C126.513016,60.255066 125.530342,59.787655 124.117172,58.912117 
	C123.162163,58.255116 122.637657,58.006248 122.113144,57.757378 
z"/>
<path fill="#B5CE63" opacity="1.000000" stroke="none" 
	d="
M87.502747,28.838245 
	C87.889931,29.013252 88.277122,29.188263 88.924507,29.863497 
	C90.104774,31.217157 91.024834,32.070591 92.361313,33.310287 
	C91.959145,29.797735 91.669250,27.265736 91.379349,24.733734 
	C93.388420,26.287197 96.385002,27.440060 97.210037,29.473843 
	C99.197891,34.374050 100.169525,39.686504 101.604416,45.031662 
	C89.642967,45.503777 81.170410,37.214710 83.123436,28.053097 
	C83.651054,25.578064 83.899841,25.478006 86.195923,27.534878 
	C86.712494,28.415125 87.107620,28.626686 87.502747,28.838245 
z"/>
<path fill="#B2CC59" opacity="1.000000" stroke="none" 
	d="
M149.516800,168.724228 
	C150.237167,168.943726 150.957535,169.163239 151.998993,169.880768 
	C152.898529,170.575775 153.476959,170.772751 154.055405,170.969742 
	C155.582611,171.769577 157.109802,172.569412 158.849884,174.024506 
	C159.122070,175.258041 159.181396,175.836319 159.240723,176.414597 
	C158.474411,177.154556 157.708099,177.894516 156.637054,178.844757 
	C156.332321,179.055038 156.173904,179.153519 156.173904,179.153519 
	C151.522079,179.998108 146.870270,180.842682 141.625366,181.452911 
	C140.728928,181.083420 140.425598,180.948273 140.122253,180.813126 
	C138.662491,179.608429 137.202713,178.403748 135.382141,176.783722 
	C134.770599,176.145508 134.519852,175.922638 134.269119,175.699768 
	C134.168747,175.315582 134.068359,174.931412 134.382996,174.275696 
	C137.880020,174.004181 140.962021,174.004181 144.044006,174.004181 
	C144.106003,173.690170 144.167984,173.376175 144.229980,173.062164 
	C142.216751,171.991699 140.203522,170.921234 138.190292,169.850754 
	C138.207428,169.422318 138.224564,168.993866 138.241699,168.565414 
	C139.845413,168.110580 141.449127,167.655731 143.244919,167.401978 
	C144.253967,167.467148 145.070953,167.331238 145.887924,167.195312 
	C146.356812,167.271027 146.825684,167.346725 147.719559,167.829285 
	C148.601959,168.398834 149.059387,168.561523 149.516800,168.724228 
z"/>
<path fill="#B5CC60" opacity="1.000000" stroke="none" 
	d="
M112.200607,159.056381 
	C115.525154,154.359650 119.415863,150.488892 126.292694,149.625854 
	C125.027702,156.565033 128.419174,163.774231 122.158066,169.987106 
	C120.750244,169.731033 119.363426,169.258072 119.326881,168.697128 
	C119.193176,166.645020 119.509193,164.563629 119.655823,162.493256 
	C119.292488,162.438171 118.929153,162.383087 118.565826,162.327988 
	C117.420700,164.290955 116.275574,166.253922 115.080032,168.530853 
	C114.037262,169.540939 113.044899,170.237045 112.052536,170.933151 
	C112.052536,170.933151 111.998688,170.983139 111.960487,170.694016 
	C111.677643,170.108810 111.432999,169.812729 111.188354,169.516647 
	C111.190651,167.053329 111.192940,164.590012 111.403893,161.490753 
	C111.808563,160.255341 112.004585,159.655853 112.200607,159.056381 
z"/>
<path fill="#BED178" opacity="1.000000" stroke="none" 
	d="
M100.713776,178.506073 
	C102.178352,179.357315 103.150757,180.372681 104.314873,180.694427 
	C105.580688,181.044281 107.024658,180.749603 108.726822,180.894775 
	C109.651863,181.510880 110.241035,181.968185 110.938095,182.700562 
	C109.264374,182.975647 107.482758,182.975647 104.625526,182.975647 
	C106.895859,185.475525 108.427612,187.162155 109.959358,188.848785 
	C109.606056,189.264069 109.252754,189.679352 108.899445,190.094635 
	C107.202347,188.777267 105.505249,187.459885 103.469894,186.087006 
	C102.378944,183.299744 100.547729,182.677399 97.852364,182.801422 
	C92.722038,183.037476 87.573486,182.978256 82.435287,182.886154 
	C80.718658,182.855392 79.010529,182.350357 76.246269,181.884979 
	C80.342087,177.272202 84.714432,179.616608 88.439629,179.152756 
	C92.366928,178.663727 96.348312,178.609055 100.713776,178.506073 
z"/>
<path fill="#B2CB5A" opacity="1.000000" stroke="none" 
	d="
M99.037643,22.881769 
	C96.428909,22.710484 93.820183,22.539198 90.528809,22.234180 
	C89.287186,22.266279 88.728218,22.432110 88.169243,22.597942 
	C86.415298,22.684921 84.661346,22.771898 82.467270,22.467937 
	C82.044601,21.223001 82.062080,20.369003 82.079552,19.515007 
	C83.790543,19.359947 85.501541,19.204887 87.852325,19.346474 
	C89.636932,19.497965 90.781746,19.352806 91.926559,19.207649 
	C93.010803,19.186550 94.095039,19.165451 95.680466,19.570469 
	C98.085861,20.065582 99.990082,20.134577 101.894295,20.203571 
	C103.999786,20.540037 106.105278,20.876499 108.641647,21.605911 
	C109.685532,22.088013 110.298553,22.177166 110.911568,22.266319 
	C111.378838,22.316006 111.846100,22.365694 112.769211,22.828724 
	C113.965630,23.415497 114.706223,23.588926 115.446808,23.762358 
	C115.446808,23.762358 115.738892,23.726896 116.034409,24.071457 
	C116.728104,24.525370 117.126282,24.634720 117.524460,24.744072 
	C118.556007,24.940683 119.587547,25.137293 120.973396,25.852913 
	C121.917778,26.564081 122.507858,26.756237 123.413742,26.972977 
	C124.150406,27.008368 124.571266,27.019176 124.992126,27.029987 
	C125.587349,27.453201 126.182571,27.876413 126.897049,28.845921 
	C126.380859,29.910475 125.745430,30.428734 124.814835,30.849907 
	C122.729675,30.112574 120.939682,29.472326 119.149696,28.832079 
	C119.149696,28.832079 119.146545,28.878077 118.948387,28.622803 
	C118.179482,28.210848 117.608727,28.054171 117.037979,27.897493 
	C115.855370,27.451845 114.672768,27.006199 113.064575,26.330376 
	C112.638985,26.100201 112.256828,25.936693 112.256828,25.936693 
	C112.048325,25.895697 111.839813,25.854698 111.282425,25.436178 
	C110.304840,24.987877 109.676147,24.917095 109.047455,24.846313 
	C107.937920,24.653803 106.828377,24.461292 105.172424,24.114780 
	C104.626015,23.960775 104.171738,23.933628 104.171738,23.933628 
	C103.976326,23.917757 103.780922,23.901888 103.227272,23.476156 
	C101.591904,23.004787 100.314774,22.943279 99.037643,22.881769 
z"/>
<path fill="#EEF7CD" opacity="1.000000" stroke="none" 
	d="
M131.339569,28.006922 
	C134.849243,28.023100 138.060196,28.023100 141.271133,28.023100 
	C141.346680,28.284801 141.422211,28.546503 141.497757,28.808203 
	C140.170425,29.525070 138.843079,30.241936 136.785797,31.353035 
	C138.365280,32.281231 139.484756,32.939095 140.805664,33.868332 
	C140.992447,34.889072 140.977783,35.638432 140.611069,36.638969 
	C136.518814,34.544800 132.778595,32.199455 129.024353,29.640644 
	C129.010315,29.427179 128.991501,28.999737 128.991501,28.999737 
	C129.674622,28.663406 130.357727,28.327074 131.339569,28.006922 
z"/>
<path fill="#F0F8D3" opacity="1.000000" stroke="none" 
	d="
M144.653076,149.241760 
	C146.432114,147.714539 147.958511,146.362350 149.537796,145.075043 
	C150.984558,143.895737 152.488434,142.786484 153.967148,141.646378 
	C154.501755,142.090576 155.036362,142.534790 155.570984,142.978989 
	C152.581787,146.891052 149.592575,150.803101 146.270157,154.770126 
	C145.432449,153.031754 144.927963,151.238403 144.653076,149.241760 
z"/>
<path fill="#E7F3C2" opacity="1.000000" stroke="none" 
	d="
M143.052841,167.200882 
	C141.449127,167.655731 139.845413,168.110580 138.241699,168.565414 
	C138.224564,168.993866 138.207428,169.422318 138.190292,169.850754 
	C140.203522,170.921234 142.216751,171.991699 144.229980,173.062164 
	C144.167984,173.376175 144.106003,173.690170 144.044006,174.004181 
	C140.962021,174.004181 137.880020,174.004181 134.334961,173.981750 
	C133.327011,173.163040 132.782120,172.366776 132.118683,171.295197 
	C134.517426,169.273804 137.034714,167.527740 139.843079,165.781464 
	C140.864822,165.927658 141.595474,166.074066 142.748444,166.550018 
	C143.170761,166.879562 143.052841,167.200882 143.052841,167.200882 
z"/>
<path fill="#EEF8CE" opacity="1.000000" stroke="none" 
	d="
M119.107849,29.230350 
	C120.939682,29.472326 122.729675,30.112574 124.818085,31.232552 
	C125.068420,32.473232 125.020332,33.234184 124.972252,33.995132 
	C124.957947,34.441036 124.943649,34.886936 124.938942,36.102097 
	C124.908348,38.914368 124.868156,40.957382 124.827972,43.000397 
	C124.220917,42.212914 123.613853,41.425430 122.897400,40.072224 
	C122.555893,39.275070 122.323792,39.043644 122.091682,38.812218 
	C121.302788,36.595531 120.513893,34.378849 119.377472,32.091084 
	C119.041969,31.222878 119.053986,30.425751 119.107849,29.230350 
z"/>
<path fill="#B2CB5A" opacity="1.000000" stroke="none" 
	d="
M129.038376,29.854111 
	C132.778595,32.199455 136.518814,34.544800 140.585358,37.013260 
	C141.486176,37.984711 142.060654,38.833046 142.338837,40.301544 
	C141.835358,41.138836 141.628174,41.355965 141.420990,41.573097 
	C140.059113,40.650646 138.697220,39.728199 137.018799,38.245224 
	C136.301346,37.530361 135.900406,37.376030 135.499466,37.221699 
	C135.160126,37.151138 134.820801,37.080582 134.107086,36.723598 
	C133.504715,36.198540 133.226181,36.066303 132.897095,36.040459 
	C132.623535,36.020653 132.358627,35.961849 131.870575,35.351524 
	C130.771973,33.177368 129.905167,31.515741 129.038376,29.854111 
z"/>
<path fill="#BCCF73" opacity="1.000000" stroke="none" 
	d="
M81.691391,19.379314 
	C82.062080,20.369003 82.044601,21.223001 82.033119,22.399361 
	C78.932190,23.424139 75.825272,24.126556 71.828270,25.030201 
	C73.508492,19.158588 77.740013,19.775940 81.691391,19.379314 
z"/>
<path fill="#BED178" opacity="1.000000" stroke="none" 
	d="
M115.130447,168.216888 
	C116.275574,166.253922 117.420700,164.290955 118.565826,162.327988 
	C118.929153,162.383087 119.292488,162.438171 119.655823,162.493256 
	C119.509193,164.563629 119.193176,166.645020 119.326881,168.697128 
	C119.363426,169.258072 120.750244,169.731033 121.848930,170.152206 
	C122.199326,170.413300 122.355782,170.688324 122.839294,171.042084 
	C121.566536,172.131683 120.104309,173.064316 118.291519,173.642853 
	C115.720413,172.309494 119.615074,167.941559 115.130447,168.216888 
z"/>
<path fill="#F6FCE7" opacity="1.000000" stroke="none" 
	d="
M115.080040,168.530853 
	C119.615074,167.941559 115.720413,172.309494 117.968826,173.643250 
	C117.833366,174.048355 117.670044,174.098984 117.007050,174.173279 
	C116.181587,174.357834 115.995514,174.618515 115.949165,174.978973 
	C114.540497,175.323746 113.131828,175.668518 111.357605,175.983917 
	C111.331215,174.531815 111.670372,173.109131 112.031036,171.309784 
	C113.044899,170.237045 114.037262,169.540939 115.080040,168.530853 
z"/>
<path fill="#DEECF5" opacity="1.000000" stroke="none" 
	d="
M37.849098,150.779648 
	C40.751003,151.128845 43.595589,151.755920 46.440170,152.383011 
	C46.457733,152.855057 46.475296,153.327087 46.492859,153.799133 
	C43.152767,153.799133 39.812675,153.799133 36.213554,153.476135 
	C36.566940,152.454590 37.179359,151.756058 37.849098,150.779648 
z"/>
<path fill="#BCCF73" opacity="1.000000" stroke="none" 
	d="
M88.206055,23.045858 
	C88.728218,22.432110 89.287186,22.266279 90.153107,22.179146 
	C90.632965,22.936312 90.805885,23.614780 91.179077,24.513491 
	C91.669250,27.265736 91.959145,29.797735 92.361313,33.310287 
	C91.024834,32.070591 90.104774,31.217157 89.140167,30.103792 
	C88.811378,27.727167 88.527115,25.610470 88.206055,23.045858 
z"/>
<path fill="#BCCF73" opacity="1.000000" stroke="none" 
	d="
M129.024353,29.640648 
	C129.905167,31.515741 130.771973,33.177368 131.711853,35.223095 
	C131.066574,35.678814 130.348236,35.750435 129.357315,35.925812 
	C127.948433,35.355202 126.812111,34.680832 125.324020,34.000793 
	C125.020332,33.234184 125.068420,32.473232 125.113251,31.329639 
	C125.745430,30.428734 126.380859,29.910475 127.082901,29.051830 
	C127.558372,28.777916 127.967232,28.844387 128.683792,28.955299 
	C128.991501,28.999737 129.010315,29.427179 129.024353,29.640648 
z"/>
<path fill="#B2CB5A" opacity="1.000000" stroke="none" 
	d="
M145.658295,46.181961 
	C144.322433,44.836651 142.986588,43.491341 141.535858,41.859566 
	C141.628174,41.355965 141.835358,41.138836 142.378296,40.610214 
	C144.866409,41.999046 147.018784,43.699379 148.803604,45.726891 
	C147.510132,46.096703 146.584213,46.139332 145.658295,46.181961 
z"/>
<path fill="#BCCF73" opacity="1.000000" stroke="none" 
	d="
M150.052979,60.380806 
	C150.854401,64.028412 151.450745,68.004395 152.064697,72.391541 
	C151.337494,68.771530 150.592682,64.740349 150.052979,60.380806 
z"/>
<path fill="#EEF7CD" opacity="1.000000" stroke="none" 
	d="
M143.030975,34.690895 
	C146.002319,33.941174 149.111450,33.527649 152.637115,33.132156 
	C150.179321,35.991127 146.927643,36.844707 143.030975,34.690895 
z"/>
<path fill="#E6F4C3" opacity="1.000000" stroke="none" 
	d="
M163.611603,60.231003 
	C164.376526,62.659687 164.908966,65.301918 165.441422,67.944145 
	C164.972702,68.098503 164.503983,68.252869 164.035278,68.407234 
	C163.341827,66.885239 162.648376,65.363251 161.916107,63.492046 
	C162.377899,62.243401 162.878525,61.343975 163.611603,60.231003 
z"/>
<path fill="#BCCF73" opacity="1.000000" stroke="none" 
	d="
M101.973976,19.929504 
	C99.990082,20.134577 98.085861,20.065582 96.074699,19.676594 
	C98.095856,18.355434 100.223953,17.354269 102.661423,16.157547 
	C102.988777,16.480583 103.006767,16.999174 103.045135,17.908360 
	C102.728226,18.751116 102.390945,19.203278 101.973976,19.929504 
z"/>
<path fill="#DFE9F1" opacity="1.000000" stroke="none" 
	d="
M96.500702,155.343887 
	C96.018005,156.788376 95.535309,158.232864 94.829453,159.907562 
	C94.058754,159.522583 93.511223,158.907410 92.883301,157.861725 
	C93.198349,156.241241 93.593781,155.051254 94.498108,154.011276 
	C95.504913,154.555481 96.002808,154.949692 96.500702,155.343887 
z"/>
<path fill="#DFE9F1" opacity="1.000000" stroke="none" 
	d="
M91.513397,107.828934 
	C92.906105,108.847321 93.623344,110.005089 93.881180,111.543457 
	C92.761436,111.975647 92.101097,112.027245 91.440758,112.078835 
	C90.818840,111.026566 90.196922,109.974304 89.539268,108.619843 
	C89.948334,108.201195 90.393135,108.084747 91.513397,107.828934 
z"/>
<path fill="#BED178" opacity="1.000000" stroke="none" 
	d="
M113.247131,179.460846 
	C114.220833,178.621628 115.511940,177.897217 117.163116,177.251892 
	C116.203636,178.079208 114.884094,178.827423 113.247131,179.460846 
z"/>
<path fill="#BCCF73" opacity="1.000000" stroke="none" 
	d="
M102.206757,15.047091 
	C102.790100,14.139185 103.587051,13.355239 104.384010,12.571293 
	C104.666878,12.793720 104.949745,13.016148 105.232613,13.238576 
	C104.689774,14.124877 104.146935,15.011179 103.279999,15.937738 
	C102.882179,15.639470 102.703667,15.370488 102.206757,15.047091 
z"/>
<path fill="#BCCF73" opacity="1.000000" stroke="none" 
	d="
M91.720871,18.970228 
	C90.781746,19.352806 89.636932,19.497965 88.280853,19.414577 
	C89.218124,19.034956 90.366661,18.883883 91.720871,18.970228 
z"/>
<path fill="#BCCF73" opacity="1.000000" stroke="none" 
	d="
M99.279434,23.140619 
	C100.314774,22.943279 101.591904,23.004787 102.952827,23.370499 
	C101.864822,23.582956 100.693024,23.491213 99.279434,23.140619 
z"/>
<path fill="#BDD079" opacity="1.000000" stroke="none" 
	d="
M143.244919,167.401978 
	C143.052841,167.200882 143.170761,166.879562 143.267853,166.741669 
	C143.663193,166.481888 143.971878,166.443283 144.711731,166.625061 
	C145.417664,166.915695 145.720627,166.969513 146.041321,166.923615 
	C146.041321,166.923615 146.024597,167.092957 145.956268,167.144135 
	C145.070953,167.331238 144.253967,167.467148 143.244919,167.401978 
z"/>
<path fill="#BCCF73" opacity="1.000000" stroke="none" 
	d="
M145.788239,46.432114 
	C146.584213,46.139332 147.510132,46.096703 148.901306,46.079586 
	C149.366577,46.105099 149.316956,46.130608 149.336792,46.135765 
	C149.025116,46.656624 148.693604,47.172325 147.959610,47.921329 
	C147.010803,47.663845 146.464508,47.173058 145.788239,46.432114 
z"/>
<path fill="#BED178" opacity="1.000000" stroke="none" 
	d="
M104.831894,177.791611 
	C104.477455,178.192474 103.947563,178.420776 103.252945,178.461838 
	C103.610954,178.056091 104.133698,177.837570 104.831894,177.791611 
z"/>
<path fill="#BCCF73" opacity="1.000000" stroke="none" 
	d="
M110.760643,22.006048 
	C110.298553,22.177166 109.685532,22.088013 109.007690,21.774075 
	C109.498489,21.614784 110.054100,21.680281 110.760643,22.006048 
z"/>
<path fill="#F0F8D3" opacity="1.000000" stroke="none" 
	d="
M145.482635,141.976959 
	C145.628357,142.497009 145.507355,143.065674 145.139282,143.807587 
	C145.000107,143.329086 145.108017,142.677338 145.482635,141.976959 
z"/>
<path fill="#BDD079" opacity="1.000000" stroke="none" 
	d="
M159.526001,176.287369 
	C159.181396,175.836319 159.122070,175.258041 159.084503,174.244141 
	C159.341278,174.592392 159.576279,175.376266 159.526001,176.287369 
z"/>
<path fill="#BCCF73" opacity="1.000000" stroke="none" 
	d="
M109.220818,25.085453 
	C109.676147,24.917095 110.304840,24.987877 110.994644,25.299129 
	C110.501892,25.467932 109.948036,25.396263 109.220818,25.085453 
z"/>
<path fill="#BED178" opacity="1.000000" stroke="none" 
	d="
M109.353485,181.039062 
	C109.572105,180.537170 110.100319,180.012314 110.803307,179.710815 
	C110.539749,180.294815 110.101418,180.655457 109.353485,181.039062 
z"/>
<path fill="#E6F4C3" opacity="1.000000" stroke="none" 
	d="
M161.735504,62.020775 
	C161.142609,61.757679 160.633636,61.156326 160.127258,60.245457 
	C160.693039,60.518131 161.256256,61.100323 161.735504,62.020775 
z"/>
<path fill="#EEF8CE" opacity="1.000000" stroke="none" 
	d="
M115.285858,48.889153 
	C115.875656,49.170784 116.374191,49.796154 116.860947,50.732666 
	C116.297638,50.440170 115.746124,49.836533 115.285858,48.889153 
z"/>
<path fill="#BCCF73" opacity="1.000000" stroke="none" 
	d="
M151.195023,53.448349 
	C151.322525,54.240536 151.397842,55.425014 151.209183,56.808155 
	C151.011093,55.951427 151.076981,54.896034 151.195023,53.448349 
z"/>
<path fill="#BCCF73" opacity="1.000000" stroke="none" 
	d="
M115.282593,23.496151 
	C114.706223,23.588926 113.965630,23.415497 113.087990,22.983887 
	C113.673416,22.893785 114.395897,23.061865 115.282593,23.496151 
z"/>
<path fill="#BED178" opacity="1.000000" stroke="none" 
	d="
M130.812469,167.489227 
	C130.751434,167.880814 130.422867,168.317551 129.798508,168.762222 
	C129.850113,168.358231 130.197540,167.946289 130.812469,167.489227 
z"/>
<path fill="#F6FCE7" opacity="1.000000" stroke="none" 
	d="
M111.892593,159.208527 
	C112.004585,159.655853 111.808563,160.255341 111.380463,161.077545 
	C111.293785,160.653748 111.439186,160.007202 111.892593,159.208527 
z"/>
<path fill="#BDD079" opacity="1.000000" stroke="none" 
	d="
M149.385086,168.493805 
	C149.059387,168.561523 148.601959,168.398834 148.028534,168.012802 
	C148.359467,167.947433 148.806412,168.105408 149.385086,168.493805 
z"/>
<path fill="#EEF7CD" opacity="1.000000" stroke="none" 
	d="
M124.826813,26.769653 
	C124.571266,27.019176 124.150406,27.008368 123.361389,26.750759 
	C122.993240,26.503960 122.925644,26.052111 122.925644,26.052111 
	C123.504257,26.204514 124.082878,26.356916 124.826813,26.769653 
z"/>
<path fill="#EEF8CE" opacity="1.000000" stroke="none" 
	d="
M117.188591,28.174932 
	C117.608727,28.054171 118.179482,28.210848 118.928833,28.610607 
	C118.518021,28.719917 117.928612,28.586145 117.188591,28.174932 
z"/>
<path fill="#BCCF73" opacity="1.000000" stroke="none" 
	d="
M122.617935,26.001358 
	C122.925644,26.052111 122.993240,26.503960 123.045593,26.726177 
	C122.507858,26.756237 121.917778,26.564081 121.201920,26.074135 
	C121.487503,25.834431 121.898872,25.892517 122.617935,26.001358 
z"/>
<path fill="#BDD079" opacity="1.000000" stroke="none" 
	d="
M153.893616,170.713226 
	C153.476959,170.772751 152.898529,170.575775 152.197418,170.084030 
	C152.627121,170.011749 153.179474,170.234238 153.893616,170.713226 
z"/>
<path fill="#EEF8CE" opacity="1.000000" stroke="none" 
	d="
M122.205978,58.053314 
	C122.637657,58.006248 123.162163,58.255116 123.815575,58.769409 
	C123.395920,58.806305 122.847374,58.577778 122.205978,58.053314 
z"/>
<path fill="#BCCF73" opacity="1.000000" stroke="none" 
	d="
M117.327988,24.508406 
	C117.126282,24.634720 116.728104,24.525370 116.161377,24.145763 
	C116.372391,24.007921 116.751961,24.140331 117.327988,24.508406 
z"/>
<path fill="#F6FCE7" opacity="1.000000" stroke="none" 
	d="
M111.208641,169.824585 
	C111.432999,169.812729 111.677643,170.108810 111.996506,170.686859 
	C111.790131,170.690048 111.509529,170.411301 111.208641,169.824585 
z"/>
<path fill="#BED178" opacity="1.000000" stroke="none" 
	d="
M126.752831,169.703857 
	C126.841583,169.802658 126.604904,169.953476 126.543396,169.981384 
	C126.481888,170.009277 126.441368,169.747131 126.441368,169.747131 
	C126.441368,169.747131 126.664078,169.605072 126.752831,169.703857 
z"/>
<path fill="#BCCF73" opacity="1.000000" stroke="none" 
	d="
M112.285919,26.088314 
	C112.256828,25.936693 112.638985,26.100201 112.724365,26.149878 
	C112.809738,26.199554 112.576675,26.394285 112.576675,26.394285 
	C112.576675,26.394285 112.315018,26.239935 112.285919,26.088314 
z"/>
<path fill="#E7F3C2" opacity="1.000000" stroke="none" 
	d="
M134.285553,175.983948 
	C134.519852,175.922638 134.770599,176.145508 135.121887,176.601868 
	C134.915619,176.646271 134.608795,176.457199 134.285553,175.983948 
z"/>
<path fill="#BDD079" opacity="1.000000" stroke="none" 
	d="
M156.239899,179.264297 
	C156.173904,179.153519 156.332321,179.055038 156.369171,179.032440 
	C156.406006,179.009857 156.521530,179.238846 156.521530,179.238846 
	C156.521530,179.238846 156.305908,179.375076 156.239899,179.264297 
z"/>
<path fill="#BCCF73" opacity="1.000000" stroke="none" 
	d="
M104.217865,24.091381 
	C104.171738,23.933628 104.626015,23.960775 104.849609,24.005619 
	C105.073196,24.050461 104.713516,24.357260 104.713516,24.357260 
	C104.713516,24.357260 104.264000,24.249136 104.217865,24.091381 
z"/>
<path fill="#E7F3C2" opacity="1.000000" stroke="none" 
	d="
M140.218582,181.081970 
	C140.425598,180.948273 140.728928,181.083420 141.198334,181.407135 
	C141.014572,181.514084 140.664734,181.432434 140.218582,181.081970 
z"/>
<path fill="#EEF7CD" opacity="1.000000" stroke="none" 
	d="
M155.327454,31.999672 
	C155.183731,31.763327 155.339432,31.538622 155.819550,31.375084 
	C155.921188,31.606131 155.748825,31.797817 155.327454,31.999672 
z"/>
<path fill="#BCCF73" opacity="1.000000" stroke="none" 
	d="
M108.404694,17.204952 
	C108.370308,16.974251 108.628563,16.633732 109.221222,16.248314 
	C109.269531,16.500656 108.983429,16.797895 108.404694,17.204952 
z"/>
<path fill="#BCCF73" opacity="1.000000" stroke="none" 
	d="
M153.995804,50.718513 
	C153.806213,50.782612 153.519989,50.601421 153.125534,50.184517 
	C153.311264,50.123615 153.605209,50.298424 153.995804,50.718513 
z"/>
<path fill="#BCCF73" opacity="1.000000" stroke="none" 
	d="
M152.384552,48.783123 
	C152.315521,48.899681 152.099915,48.644199 152.060318,48.572765 
	C152.020721,48.501331 152.286926,48.454788 152.286926,48.454788 
	C152.286926,48.454788 152.453583,48.666565 152.384552,48.783123 
z"/>
<path fill="#BCCF73" opacity="1.000000" stroke="none" 
	d="
M135.682800,37.479057 
	C135.900406,37.376030 136.301346,37.530361 136.839005,37.990990 
	C136.605865,38.110329 136.235992,37.923370 135.682800,37.479057 
z"/>
<path fill="#BCCF73" opacity="1.000000" stroke="none" 
	d="
M133.002731,36.269257 
	C133.226181,36.066303 133.504715,36.198540 133.861694,36.632652 
	C133.696594,36.718105 133.402481,36.608082 133.002731,36.269257 
z"/>
<path fill="#E7F3C2" opacity="1.000000" stroke="none" 
	d="
M145.874481,166.737762 
	C145.720627,166.969513 145.417664,166.915695 144.948700,166.622253 
	C145.094910,166.293106 145.409134,166.316299 145.874481,166.737762 
z"/>
<path fill="#56769B" opacity="1.000000" stroke="none" 
	d="
M12.993397,127.007080 
	C12.780717,126.932991 12.573399,126.853172 12.366081,126.773346 
	C12.551702,126.718025 12.737324,126.662697 12.964061,126.800636 
	C13.005177,126.993904 12.998760,127.001335 12.993397,127.007080 
z"/>
<path fill="#F0F8D3" opacity="1.000000" stroke="none" 
	d="
M147.719543,138.092804 
	C147.800735,138.276794 147.654007,138.576050 147.276703,138.987686 
	C147.194611,138.802734 147.343140,138.505386 147.719543,138.092804 
z"/>
<path fill="#EEF7CD" opacity="1.000000" stroke="none" 
	d="
M154.095642,32.873196 
	C154.075653,32.668716 154.309341,32.429508 154.797516,32.157158 
	C154.817749,32.362167 154.583527,32.600315 154.095642,32.873196 
z"/>
<path fill="#BCCF73" opacity="1.000000" stroke="none" 
	d="
M149.629669,51.217991 
	C149.698639,51.108086 149.898468,51.349037 149.936768,51.414642 
	C149.975067,51.480244 149.721085,51.529942 149.721085,51.529942 
	C149.721085,51.529942 149.560699,51.327896 149.629669,51.217991 
z"/>
<path fill="#BCCF73" opacity="1.000000" stroke="none" 
	d="
M87.330719,28.567924 
	C87.107620,28.626686 86.712494,28.415125 86.231949,27.862511 
	C86.483917,27.780174 86.821297,28.038889 87.330719,28.567924 
z"/>
<path fill="#BED178" opacity="1.000000" stroke="none" 
	d="
M141.133362,164.505127 
	C141.080139,164.337616 141.203171,164.221985 141.449738,164.063385 
	C141.638290,164.266479 141.550415,164.445343 141.133362,164.505127 
z"/>
<path fill="#FDFEFC" opacity="1.000000" stroke="none" 
	d="
M98.917923,147.979553 
	C98.882584,148.420685 98.847260,148.861816 98.297203,149.630035 
	C97.004311,149.953094 96.226151,149.949066 95.447990,149.945053 
	C95.535774,149.506287 95.623550,149.067535 96.114182,148.092468 
	C96.576637,146.865692 96.636223,146.175201 96.695816,145.484711 
	C97.158501,140.400726 97.621178,135.316727 98.532272,130.366455 
	C99.525269,133.031036 100.069855,135.561905 100.236435,138.616608 
	C99.890877,140.090149 99.923332,141.039841 99.955795,141.989548 
	C99.889389,143.049545 99.822983,144.109543 99.378448,145.612701 
	C98.972855,146.697098 98.945389,147.338318 98.917923,147.979553 
z"/>
<path fill="#FDFEFC" opacity="1.000000" stroke="none" 
	d="
M91.579300,112.444397 
	C92.101097,112.027245 92.761436,111.975647 93.916420,111.863022 
	C95.271828,113.640312 96.132584,115.478638 96.776657,117.870598 
	C96.675850,118.806465 96.791725,119.188698 96.907600,119.570923 
	C92.405731,119.445030 93.736511,114.841972 91.579300,112.444397 
z"/>
<path fill="#FDFEFC" opacity="1.000000" stroke="none" 
	d="
M99.508041,128.517120 
	C99.530785,128.740265 99.553535,128.963409 99.282295,129.350418 
	C98.192329,128.474365 97.396339,127.434441 96.656921,125.451950 
	C96.620308,124.162498 96.527130,123.815613 96.433952,123.468719 
	C96.221657,122.927780 96.009361,122.386841 96.537880,121.779434 
	C97.716614,121.819664 98.154533,121.926369 98.592453,122.033073 
	C98.796967,122.992905 99.001480,123.952744 99.169769,125.716446 
	C99.258377,127.185913 99.383209,127.851517 99.508041,128.517120 
z"/>
<path fill="#DFE9F1" opacity="1.000000" stroke="none" 
	d="
M95.265808,150.149628 
	C96.226151,149.949066 97.004311,149.953094 98.168739,149.937561 
	C98.467712,150.471054 98.380417,151.024094 97.708633,151.784729 
	C96.371758,151.982697 95.619370,151.973083 94.866989,151.963455 
	C94.939201,151.427048 95.011414,150.890625 95.265808,150.149628 
z"/>
<path fill="#FDFEFC" opacity="1.000000" stroke="none" 
	d="
M94.749893,152.186539 
	C95.619370,151.973083 96.371758,151.982697 97.499710,151.984344 
	C97.529861,152.924545 97.184448,153.872711 96.669868,155.082397 
	C96.002808,154.949692 95.504913,154.555481 94.721893,153.773132 
	C94.502121,153.059845 94.567467,152.734741 94.749893,152.186539 
z"/>
<path fill="#DFE9F1" opacity="1.000000" stroke="none" 
	d="
M98.649574,121.754333 
	C98.154533,121.926369 97.716614,121.819664 96.684052,121.360687 
	C96.168121,120.585846 96.246826,120.163269 96.657570,119.628860 
	C97.561966,120.169884 98.134338,120.822731 98.649574,121.754333 
z"/>
<path fill="#DFE9F1" opacity="1.000000" stroke="none" 
	d="
M96.466675,145.742325 
	C96.636223,146.175201 96.576637,146.865692 96.239883,147.780762 
	C96.054329,147.336884 96.145935,146.668411 96.466675,145.742325 
z"/>
<path fill="#FDFEFC" opacity="1.000000" stroke="none" 
	d="
M25.068676,65.930260 
	C25.277071,66.136833 25.451452,66.378441 25.625835,66.620049 
	C25.429348,66.593819 25.232859,66.567589 25.001732,66.288574 
	C24.967094,66.035789 25.034666,65.965294 25.068676,65.930260 
z"/>
<path fill="#FDFEFC" opacity="1.000000" stroke="none" 
	d="
M15.980543,85.017258 
	C16.185799,85.136513 16.408600,85.238770 16.631401,85.341019 
	C16.430536,85.355598 16.229670,85.370178 16.030212,85.174751 
	C16.031622,84.964745 15.998088,85.000259 15.980543,85.017258 
z"/>
<path fill="#DFE9F1" opacity="1.000000" stroke="none" 
	d="
M96.923569,119.548828 
	C96.791725,119.188698 96.675850,118.806465 96.816147,118.210037 
	C97.156700,118.251404 97.241066,118.506973 97.153854,119.127701 
	C96.982269,119.492859 96.939537,119.526733 96.923569,119.548828 
z"/>
<path fill="#DFE9F1" opacity="1.000000" stroke="none" 
	d="
M96.224426,123.701370 
	C96.527130,123.815613 96.620308,124.162498 96.698944,125.050278 
	C96.461235,125.038780 96.238068,124.486404 96.224426,123.701370 
z"/>
<path fill="#DFE9F1" opacity="1.000000" stroke="none" 
	d="
M100.154655,141.730133 
	C99.923332,141.039841 99.890877,140.090149 100.120010,139.032806 
	C100.372238,139.773666 100.362877,140.622192 100.154655,141.730133 
z"/>
<path fill="#DFE9F1" opacity="1.000000" stroke="none" 
	d="
M99.108826,147.769684 
	C98.945389,147.338318 98.972855,146.697098 99.246307,145.989563 
	C99.428101,146.468796 99.363914,147.014297 99.108826,147.769684 
z"/>
<path fill="#DFE9F1" opacity="1.000000" stroke="none" 
	d="
M99.717239,128.258499 
	C99.383209,127.851517 99.258377,127.185913 99.198730,126.009933 
	C99.484764,126.332993 99.705605,127.166435 99.717239,128.258499 
z"/>
<path fill="#BED178" opacity="1.000000" stroke="none" 
	d="
M116.160965,174.913025 
	C115.995514,174.618515 116.181587,174.357834 116.754578,174.218552 
	C116.853081,174.505646 116.643410,174.707962 116.160965,174.913025 
z"/>
<path fill="#BCCF73" opacity="1.000000" stroke="none" 
	d="
M125.140388,42.768074 
	C124.868156,40.957382 124.908348,38.914368 124.977753,36.434952 
	C125.155579,38.177616 125.304192,40.356682 125.140388,42.768074 
z"/>
<path fill="#BCCF73" opacity="1.000000" stroke="none" 
	d="
M122.134323,39.059528 
	C122.323792,39.043644 122.555893,39.275070 122.828644,39.751884 
	C122.546349,39.859600 122.315575,39.629456 122.134323,39.059528 
z"/>
</svg>
