<svg width="642" height="116" viewBox="0 0 642 116" fill="none" xmlns="http://www.w3.org/2000/svg">
<path d="M98.136 0.400024H113.752L124.504 58.384L151.64 0.400024H167.256L167.768 90H153.688L152.92 30.096L128.728 81.552H113.88L104.024 30.096L86.488 90H72.408L98.136 0.400024Z" fill="#011627"/>
<path d="M236.456 63.76H192.296C192.467 65.552 192.893 67.216 193.576 68.752C194.259 70.288 195.155 71.6534 196.264 72.848C198.909 75.4934 202.237 76.816 206.248 76.816C212.392 76.816 217.469 74.9814 221.48 71.312L229.8 81.808C222.717 88.2934 214.184 91.536 204.2 91.536C195.411 91.536 188.456 88.2507 183.336 81.68C178.131 75.1947 176.168 67.3014 177.448 58C178.728 48.6134 182.824 40.6774 189.736 34.192C196.477 27.7067 204.243 24.464 213.032 24.464C221.395 24.464 227.88 27.664 232.488 34.064C237.011 40.3787 238.589 48.3574 237.224 58L236.456 63.76ZM210.728 38.544C206.803 38.544 203.219 39.824 199.976 42.384C197.245 44.7734 195.197 47.8454 193.832 51.6H222.76C222.589 47.76 221.523 44.6454 219.56 42.256C217.597 39.7814 214.653 38.544 210.728 38.544Z" fill="#011627"/>
<path d="M251.759 26H264.943L263.663 34.96C264.09 34.6187 264.474 34.2774 264.815 33.936C265.156 33.5094 265.498 33.168 265.839 32.912C268.228 30.7787 270.66 29.072 273.135 27.792C277.487 25.5734 282.223 24.464 287.343 24.464L285.295 39.184C279.663 39.184 274.586 40.976 270.063 44.56C265.54 48.2294 262.511 53.136 260.975 59.28L256.623 90H242.671L251.759 26Z" fill="#011627"/>
<path d="M312.521 71.312L297.929 90H280.905L305.865 58L289.865 26H306.633L316.233 44.816L331.081 26H347.849L322.761 58.128L338.889 90H321.993L312.521 71.312Z" fill="#011627"/>
<path d="M0 73H77.2894L81.1679 59.4929L0 73Z" fill="#011627"/>
<path d="M173 58L81.1679 59.4929L77.2894 73L173 58Z" fill="white"/>
<path d="M369.568 26.0001L368.544 33.5521C368.971 33.1254 369.355 32.6987 369.696 32.272C370.123 31.8454 370.549 31.4614 370.976 31.1201C375.84 26.6827 381.771 24.4641 388.768 24.4641C397.472 24.4641 404.171 27.7067 408.864 34.1921C413.643 40.6774 415.392 48.6134 414.112 58.0001C412.832 67.2161 408.864 75.1521 402.208 81.8081C395.637 88.2934 388 91.5361 379.296 91.5361C372.725 91.5361 367.648 89.3601 364.064 85.0081C363.893 84.7521 363.68 84.4961 363.424 84.2401C363.253 83.8987 363.083 83.5574 362.912 83.2161L358.304 115.6H344.352L356.896 26.0001H369.568ZM380.32 76.9441C385.184 76.9441 389.493 75.0667 393.248 71.312C396.917 67.6427 399.136 63.2054 399.904 58.0001C400.672 52.7947 399.691 48.3147 396.96 44.5601C394.229 40.8907 390.475 39.056 385.696 39.056C380.917 39.056 376.693 40.8907 373.024 44.5601C369.355 48.1441 367.136 52.6241 366.368 58.0001C365.6 63.2907 366.539 67.7707 369.184 71.4401C371.744 75.1094 375.456 76.9441 380.32 76.9441Z" fill="#EB4545"/>
<path d="M429.884 26.0001H443.068L441.788 34.9601C442.215 34.6187 442.599 34.2774 442.94 33.9361C443.281 33.5094 443.623 33.1681 443.964 32.9121C446.353 30.7787 448.785 29.0721 451.26 27.792C455.612 25.5734 460.348 24.4641 465.468 24.4641L463.42 39.1841C457.788 39.1841 452.711 40.9761 448.188 44.5601C443.665 48.2294 440.636 53.1361 439.1 59.2801L434.748 90.0001H420.796L429.884 26.0001Z" fill="#EB4545"/>
<path d="M525.206 63.7601H481.046C481.217 65.5521 481.643 67.2161 482.326 68.7521C483.009 70.2881 483.905 71.6534 485.014 72.8481C487.659 75.4934 490.987 76.8161 494.998 76.8161C501.142 76.8161 506.219 74.9814 510.23 71.312L518.55 81.8081C511.467 88.2934 502.934 91.5361 492.95 91.5361C484.161 91.5361 477.206 88.2507 472.086 81.6801C466.881 75.1947 464.918 67.3014 466.198 58.0001C467.478 48.6134 471.574 40.6774 478.486 34.1921C485.227 27.7067 492.993 24.4641 501.782 24.4641C510.145 24.4641 516.63 27.6641 521.238 34.0641C525.761 40.3787 527.339 48.3574 525.974 58.0001L525.206 63.7601ZM499.478 38.5441C495.553 38.5441 491.969 39.8241 488.726 42.3841C485.995 44.7734 483.947 47.8454 482.582 51.6001H511.51C511.339 47.76 510.273 44.6454 508.31 42.2561C506.347 39.7814 503.403 38.5441 499.478 38.5441Z" fill="#EB4545"/>
<path d="M578.909 37.5201L565.085 42.3841C564.744 40.9334 564.018 39.7814 562.909 38.9281C561.629 38.1601 560.136 37.7761 558.429 37.7761C556.21 37.7761 554.376 38.3734 552.925 39.5681C551.474 40.6774 550.621 42.1281 550.365 43.9201C550.194 46.2241 551.858 47.9307 555.357 49.0401C556.21 49.2961 557.021 49.5521 557.789 49.8081C558.557 49.9787 559.282 50.1921 559.965 50.4481C565.17 51.7281 569.138 53.8187 571.869 56.7201C575.453 60.5601 576.818 65.3814 575.965 71.1841C575.026 77.4987 571.912 82.6187 566.621 86.5441C562.269 89.8721 556.893 91.5361 550.493 91.5361C545.288 91.4507 540.893 90.2134 537.309 87.8241C533.469 85.264 531.08 81.8507 530.141 77.5841L543.965 72.592C545.074 76.176 547.72 77.9681 551.901 77.9681C554.632 77.9681 556.893 77.2854 558.685 75.9201C560.562 74.4694 561.629 72.7201 561.885 70.6721C562.141 68.1974 560.136 66.2347 555.869 64.784C555.186 64.4427 554.418 64.1441 553.565 63.8881C552.797 63.6321 551.986 63.3761 551.133 63.1201C546.013 61.9254 542.088 59.6214 539.357 56.2081C536.712 52.7947 535.73 48.656 536.413 43.792C537.181 37.9041 539.869 33.2534 544.477 29.84C549.085 26.3414 554.29 24.5494 560.093 24.4641C565.298 24.4641 569.522 25.6161 572.765 27.9201C575.837 30.1387 577.885 33.3387 578.909 37.5201Z" fill="#EB4545"/>
<path d="M632.159 37.5201L618.335 42.3841C617.994 40.9334 617.268 39.7814 616.159 38.9281C614.879 38.1601 613.386 37.7761 611.679 37.7761C609.46 37.7761 607.626 38.3734 606.175 39.5681C604.724 40.6774 603.871 42.1281 603.615 43.9201C603.444 46.2241 605.108 47.9307 608.607 49.0401C609.46 49.2961 610.271 49.5521 611.039 49.8081C611.807 49.9787 612.532 50.1921 613.215 50.4481C618.42 51.7281 622.388 53.8187 625.119 56.7201C628.703 60.5601 630.068 65.3814 629.215 71.1841C628.276 77.4987 625.162 82.6187 619.871 86.5441C615.519 89.8721 610.143 91.5361 603.743 91.5361C598.538 91.4507 594.143 90.2134 590.559 87.8241C586.719 85.264 584.33 81.8507 583.391 77.5841L597.215 72.592C598.324 76.176 600.97 77.9681 605.151 77.9681C607.882 77.9681 610.143 77.2854 611.935 75.9201C613.812 74.4694 614.879 72.7201 615.135 70.6721C615.391 68.1974 613.386 66.2347 609.119 64.784C608.436 64.4427 607.668 64.1441 606.815 63.8881C606.047 63.6321 605.236 63.3761 604.383 63.1201C599.263 61.9254 595.338 59.6214 592.607 56.2081C589.962 52.7947 588.98 48.656 589.663 43.792C590.431 37.9041 593.119 33.2534 597.727 29.84C602.335 26.3414 607.54 24.5494 613.343 24.4641C618.548 24.4641 622.772 25.6161 626.015 27.9201C629.087 30.1387 631.135 33.3387 632.159 37.5201Z" fill="#EB4545"/>
<path d="M550 73.0001H642V58.0001L550 73.0001Z" fill="white"/>
</svg>
